<svg width="142" height="142" viewBox="0 0 142 142" fill="none" xmlns="http://www.w3.org/2000/svg">
<path d="M123.367 117.868C122.945 120.258 120.869 122 118.443 122H19.4101L34.338 37.3489H133.991C135.856 37.3489 137.269 39.033 136.945 40.8699L123.367 117.868Z" fill="#DEE2E8"/>
<path d="M69.9243 31.3034C69.7795 29.762 68.4856 28.5839 66.9375 28.5839H38.4004C36.9445 28.5839 35.6987 29.6293 35.446 31.0632L34.338 37.3489H70.4922L69.9243 31.3034Z" fill="#DEE2E8"/>
<g opacity="0.1">
<path d="M122.638 122H19.4101L34.338 37.3489H133.991C135.856 37.3489 137.269 39.033 136.945 40.8699L122.638 122Z" fill="#DEE2E8"/>
<path d="M69.9243 31.3034C69.7795 29.762 68.4856 28.5839 66.9375 28.5839H38.4004C36.9445 28.5839 35.6987 29.6293 35.446 31.0632L34.338 37.3489H70.4922L69.9243 31.3034Z" fill="#DEE2E8"/>
</g>
<path d="M98 101.492C98.2202 101.444 98.4404 101.393 98.6573 101.339" stroke="#263238" stroke-width="0.338808" stroke-miterlimit="10"/>
<path d="M99.9583 100.953C105.142 99.2012 109.482 95.1254 109.889 90.3617C110.79 79.8587 98 74.0583 99.3214 61.9222C100.582 50.3451 112.725 49.5185 117.593 51.1176C122.97 52.8862 121.127 58.053 116.258 57.3856C107.819 56.2302 102.513 47.0553 106.521 36.6471C109.516 28.8715 116.983 25.9374 120.016 25.043" stroke="#263238" stroke-width="0.338808" stroke-miterlimit="10" stroke-dasharray="1.36 1.36"/>
<path d="M120.67 24.8634C121.086 24.755 121.327 24.7109 121.327 24.7109" stroke="#263238" stroke-width="0.338808" stroke-miterlimit="10"/>
<path d="M126.7 22.8373C125.836 20.1607 120.05 21.123 121.178 24.6228C122.306 28.1227 127.564 25.5173 126.7 22.8373Z" fill="#263238"/>
<path d="M118.03 21.7667C118.074 20.591 119.707 19.6864 122.018 20.1031C124.329 20.5199 126.501 22.0784 126.501 22.0784C126.501 22.0784 124.22 23.4607 121.886 23.7148C119.552 23.9689 117.986 22.939 118.03 21.7667Z" fill="#EBEBEB"/>
<path d="M126.501 22.0716C125.301 22.0716 124.105 22.0378 122.909 22.0005C121.713 21.9632 120.514 21.9022 119.318 21.8074C120.517 21.8074 121.717 21.8379 122.913 21.8751C124.109 21.9124 125.308 21.9734 126.501 22.0716Z" fill="#263238"/>
<path d="M120.351 20.7198C121.032 21.0455 121.674 21.4467 122.265 21.9158C121.925 21.7559 121.594 21.5748 121.276 21.3737C120.955 21.1739 120.646 20.9556 120.351 20.7198V20.7198Z" fill="#263238"/>
<path d="M123.492 21.9598C122.879 22.4566 122.215 22.8859 121.51 23.2405C122.126 22.7432 122.794 22.3138 123.502 21.9598H123.492Z" fill="#263238"/>
<path d="M123.841 21.2991C124.183 21.4633 124.482 21.7045 124.715 22.0039C124.544 21.9232 124.384 21.8219 124.237 21.7023C124.09 21.5835 123.957 21.4482 123.841 21.2991V21.2991Z" fill="#263238"/>
<path d="M120.233 28.7292C120.954 29.6575 122.808 29.4339 124.437 27.7467C126.067 26.0594 126.931 23.5217 126.931 23.5217C126.931 23.5217 124.261 23.725 122.225 24.877C120.189 26.0289 119.508 27.7975 120.233 28.7292Z" fill="#EBEBEB"/>
<path d="M126.931 23.5217C125.955 24.1993 125.006 24.9515 124.054 25.6799C123.102 26.4084 122.171 27.1605 121.259 27.9364C122.235 27.2588 123.184 26.51 124.132 25.7816C125.081 25.0531 126.006 24.301 126.931 23.5217Z" fill="#263238"/>
<path d="M122.723 28.2041C122.904 27.875 123.066 27.5356 123.207 27.1876C123.351 26.8387 123.474 26.4812 123.573 26.117C123.392 26.4458 123.23 26.7853 123.089 27.1334C122.946 27.4829 122.824 27.8403 122.723 28.2041Z" fill="#263238"/>
<path d="M124.559 25.3716C123.766 25.3292 122.971 25.3713 122.187 25.497C122.582 25.5207 122.978 25.5207 123.373 25.497C123.771 25.4776 124.167 25.4358 124.559 25.3716V25.3716Z" fill="#263238"/>
<path d="M125.213 25.707C125.304 25.5397 125.374 25.3623 125.423 25.1785C125.473 24.996 125.503 24.8085 125.511 24.6194C125.331 24.9548 125.229 25.3266 125.213 25.707V25.707Z" fill="#263238"/>
<path d="M126.7 22.8373C126.509 22.8995 126.304 22.9034 126.11 22.8487C125.916 22.794 125.743 22.683 125.613 22.5299C125.482 22.3768 125.4 22.1884 125.377 21.9886C125.354 21.7888 125.39 21.5865 125.482 21.4074C125.573 21.2284 125.716 21.0805 125.892 20.9826C126.068 20.8847 126.269 20.8412 126.469 20.8575C126.67 20.8739 126.861 20.9494 127.018 21.0744C127.176 21.1995 127.293 21.3685 127.354 21.56C127.437 21.8161 127.414 22.0944 127.291 22.3338C127.169 22.5732 126.956 22.7543 126.7 22.8373Z" fill="#455A64"/>
<path d="M127.324 24.7719C127.133 24.8338 126.927 24.8376 126.734 24.7828C126.541 24.7281 126.368 24.6172 126.237 24.4642C126.107 24.3112 126.025 24.123 126.001 23.9234C125.978 23.7238 126.014 23.5217 126.106 23.3427C126.197 23.1637 126.339 23.0158 126.515 22.9177C126.69 22.8196 126.891 22.7757 127.091 22.7916C127.292 22.8075 127.483 22.8825 127.641 23.007C127.798 23.1315 127.916 23.3 127.978 23.4912C128.019 23.6183 128.035 23.7522 128.024 23.8853C128.014 24.0184 127.977 24.1481 127.916 24.2671C127.855 24.386 127.772 24.4918 127.67 24.5784C127.569 24.6651 127.451 24.7308 127.324 24.7719V24.7719Z" fill="#455A64"/>
<path d="M121.853 118.468C122.184 120.308 120.77 122 118.901 122H21.5456C20.0938 122 18.8503 120.96 18.593 119.532L4.98595 43.9535C4.65467 42.1134 6.06886 40.4219 7.93847 40.4219H105.29C106.742 40.4219 107.986 41.4614 108.243 42.8902L121.853 118.468Z" fill="#EEEEF2"/>
</svg>
