<svg width="21" height="20" viewBox="0 0 21 20" fill="none" xmlns="http://www.w3.org/2000/svg">
<path d="M10.5 9.99998C10.9603 9.99998 11.3334 9.62688 11.3334 9.16665C11.3334 8.70641 10.9603 8.33331 10.5 8.33331C10.0398 8.33331 9.66669 8.70641 9.66669 9.16665C9.66669 9.62688 10.0398 9.99998 10.5 9.99998Z" fill="#14161A"/>
<path d="M13.8333 9.99998C14.2936 9.99998 14.6667 9.62688 14.6667 9.16665C14.6667 8.70641 14.2936 8.33331 13.8333 8.33331C13.3731 8.33331 13 8.70641 13 9.16665C13 9.62688 13.3731 9.99998 13.8333 9.99998Z" fill="#14161A"/>
<path d="M7.16665 9.99998C7.62688 9.99998 7.99998 9.62688 7.99998 9.16665C7.99998 8.70641 7.62688 8.33331 7.16665 8.33331C6.70641 8.33331 6.33331 8.70641 6.33331 9.16665C6.33331 9.62688 6.70641 9.99998 7.16665 9.99998Z" fill="#14161A"/>
<path d="M16.3334 2.5H4.66669C4.00365 2.5 3.36776 2.76339 2.89892 3.23223C2.43008 3.70107 2.16669 4.33696 2.16669 5V17.5C2.16694 17.6477 2.20643 17.7926 2.2811 17.92C2.35578 18.0474 2.46297 18.1526 2.59169 18.225C2.71623 18.2956 2.85686 18.3329 3.00002 18.3333C3.14959 18.3333 3.29639 18.293 3.42502 18.2167L7.16669 15.95C7.30499 15.8677 7.46418 15.8271 7.62502 15.8333H16.3334C16.9964 15.8333 17.6323 15.5699 18.1011 15.1011C18.57 14.6323 18.8334 13.9964 18.8334 13.3333V5C18.8334 4.33696 18.57 3.70107 18.1011 3.23223C17.6323 2.76339 16.9964 2.5 16.3334 2.5ZM17.1667 13.3333C17.1667 13.5543 17.0789 13.7663 16.9226 13.9226C16.7663 14.0789 16.5544 14.1667 16.3334 14.1667H7.62502C7.16987 14.1663 6.72326 14.2902 6.33335 14.525L3.83335 16.025V5C3.83335 4.77899 3.92115 4.56702 4.07743 4.41074C4.23371 4.25446 4.44567 4.16667 4.66669 4.16667H16.3334C16.5544 4.16667 16.7663 4.25446 16.9226 4.41074C17.0789 4.56702 17.1667 4.77899 17.1667 5V13.3333Z" fill="#14161A"/>
</svg>
