<svg width="20" height="20" viewBox="0 0 20 20" fill="none" xmlns="http://www.w3.org/2000/svg">
<path d="M9.99984 9.99998C10.4601 9.99998 10.8332 9.62688 10.8332 9.16665C10.8332 8.70641 10.4601 8.33331 9.99984 8.33331C9.5396 8.33331 9.1665 8.70641 9.1665 9.16665C9.1665 9.62688 9.5396 9.99998 9.99984 9.99998Z" fill="#F9FAFB"/>
<path d="M13.3333 9.99998C13.7936 9.99998 14.1667 9.62688 14.1667 9.16665C14.1667 8.70641 13.7936 8.33331 13.3333 8.33331C12.8731 8.33331 12.5 8.70641 12.5 9.16665C12.5 9.62688 12.8731 9.99998 13.3333 9.99998Z" fill="#F9FAFB"/>
<path d="M6.66683 9.99998C7.12707 9.99998 7.50016 9.62688 7.50016 9.16665C7.50016 8.70641 7.12707 8.33331 6.66683 8.33331C6.20659 8.33331 5.8335 8.70641 5.8335 9.16665C5.8335 9.62688 6.20659 9.99998 6.66683 9.99998Z" fill="#F9FAFB"/>
<path d="M15.8332 2.5H4.1665C3.50346 2.5 2.86758 2.76339 2.39874 3.23223C1.9299 3.70107 1.6665 4.33696 1.6665 5V17.5C1.66676 17.6477 1.70624 17.7926 1.78092 17.92C1.8556 18.0474 1.96278 18.1526 2.0915 18.225C2.21605 18.2956 2.35668 18.3329 2.49984 18.3333C2.64941 18.3333 2.79621 18.293 2.92484 18.2167L6.6665 15.95C6.80481 15.8677 6.964 15.8271 7.12484 15.8333H15.8332C16.4962 15.8333 17.1321 15.5699 17.6009 15.1011C18.0698 14.6323 18.3332 13.9964 18.3332 13.3333V5C18.3332 4.33696 18.0698 3.70107 17.6009 3.23223C17.1321 2.76339 16.4962 2.5 15.8332 2.5ZM16.6665 13.3333C16.6665 13.5543 16.5787 13.7663 16.4224 13.9226C16.2661 14.0789 16.0542 14.1667 15.8332 14.1667H7.12484C6.66969 14.1663 6.22308 14.2902 5.83317 14.525L3.33317 16.025V5C3.33317 4.77899 3.42097 4.56702 3.57725 4.41074C3.73353 4.25446 3.94549 4.16667 4.1665 4.16667H15.8332C16.0542 4.16667 16.2661 4.25446 16.4224 4.41074C16.5787 4.56702 16.6665 4.77899 16.6665 5V13.3333Z" fill="#F9FAFB"/>
</svg>
