<svg width="394" height="60" viewBox="0 0 394 60" fill="none" xmlns="http://www.w3.org/2000/svg">
<path d="M0 0H46V54C46 57.3137 43.3137 60 40 60H6C2.68629 60 0 57.3137 0 54V0Z" fill="#E22440"/>
<path d="M0.5 0.5H45.5V54C45.5 57.0376 43.0376 59.5 40 59.5H6C2.96244 59.5 0.5 57.0376 0.5 54V0.5Z" stroke="url(#paint0_linear_770_51311)" stroke-opacity="0.3"/>
<path d="M26.8717 50.4018L24.2818 47.8118C23.5463 47.0763 22.357 47.0763 21.6294 47.8118L19.0395 50.4018C18.2806 51.1608 17.0443 51.1608 16.2853 50.4018L15.0334 49.1499L19.0004 45.1827C21.1834 42.9996 24.72 42.9996 26.903 45.1827L30.8699 49.1499L29.618 50.4018C28.8669 51.1608 27.6385 51.1608 26.8717 50.4018Z" fill="white"/>
<path d="M12.8111 46.9197L11.5592 45.6678C10.8002 44.9088 10.8002 43.6725 11.5592 42.9135L14.1491 40.3235C14.8846 39.588 14.8846 38.3986 14.1491 37.6709L11.5592 35.081C10.8002 34.322 10.8002 33.0857 11.5592 32.3267L12.8111 31.0747L16.7781 35.0418C18.961 37.2249 18.961 40.7617 16.7781 42.9448L12.8111 46.9197Z" fill="white"/>
<path d="M22.9905 34.4237C21.5587 34.4237 20.1268 33.8838 19.0392 32.7883L15.0723 28.8212L16.3242 27.5692C17.0831 26.8103 18.3194 26.8103 19.0783 27.5692L21.6682 30.1592C22.3959 30.8869 23.593 30.8869 24.3206 30.1592L26.9105 27.5692C27.6695 26.8103 28.9057 26.8103 29.6647 27.5692L30.9166 28.8212L26.9496 32.7883C25.8542 33.8681 24.4224 34.4237 22.9905 34.4237Z" fill="white"/>
<path d="M33.1389 46.8885L29.1719 42.9214C26.9889 40.7383 26.9889 37.2015 29.1719 35.0184L33.1389 31.0513L34.3908 32.3032C35.1497 33.0622 35.1497 34.2985 34.3908 35.0575L31.8009 37.6475C31.0654 38.383 31.0654 39.5724 31.8009 40.3001L34.3908 42.8901C35.1497 43.6491 35.1497 44.8854 34.3908 45.6444L33.1389 46.8885Z" fill="white"/>
<path d="M64.615 32.8498V41.808L57.4072 32.8498H56V44.8627H57.7161V35.9045L64.9239 44.8627H66.3311V32.8498H64.615Z" fill="white"/>
<path d="M79.0909 34.3428V32.8498H70.6132V44.8627H72.3293V40.0061H78.3529V38.5302H72.3293V34.3428H79.0909Z" fill="white"/>
<path d="M84.6622 44.8627H86.3612V34.3428H90.4799V32.8498H80.5435V34.3428H84.6622V44.8627Z" fill="white"/>
<path d="M106.414 38.6332C107.357 38.1698 108.027 37.2603 108.027 35.956C108.027 34.0168 106.482 32.8498 103.719 32.8498H98.3307V44.8627H104.063C107.1 44.8627 108.662 43.6786 108.662 41.6192C108.662 40.0232 107.769 39.0107 106.414 38.6332ZM103.565 34.2399C105.315 34.2399 106.311 34.892 106.311 36.1619C106.311 37.4319 105.315 38.084 103.565 38.084H100.047V34.2399H103.565ZM103.994 43.4726H100.047V39.4741H103.994C105.899 39.4741 106.928 40.0919 106.928 41.4819C106.928 42.872 105.899 43.4726 103.994 43.4726Z" fill="white"/>
<path d="M121.907 44.8627L119.059 40.8298C120.74 40.2292 121.701 38.8906 121.701 37.0372C121.701 34.4286 119.814 32.8498 116.69 32.8498H112.005V44.8627H113.721V41.2073H116.69C116.948 41.2073 117.205 41.1902 117.445 41.173L120.037 44.8627H121.907ZM116.639 39.7486H113.721V34.3428H116.639C118.836 34.3428 119.985 35.321 119.985 37.0372C119.985 38.7533 118.836 39.7486 116.639 39.7486Z" fill="white"/>
<path d="M125.161 44.8627H126.877V32.8498H125.161V44.8627Z" fill="white"/>
<path d="M131.16 44.8627H136.222C140.083 44.8627 142.709 42.4258 142.709 38.8563C142.709 35.2867 140.083 32.8498 136.222 32.8498H131.16V44.8627ZM132.876 43.3697V34.3428H136.119C139.088 34.3428 140.993 36.1619 140.993 38.8563C140.993 41.5506 139.088 43.3697 136.119 43.3697H132.876Z" fill="white"/>
<path d="M154.347 42.7004C153.489 43.2495 152.545 43.4726 151.533 43.4726C148.77 43.4726 146.762 41.4991 146.762 38.8563C146.762 36.1791 148.77 34.2399 151.55 34.2399C152.906 34.2399 154.038 34.6689 155.034 35.6299L156.098 34.5659C155 33.3475 153.386 32.7125 151.481 32.7125C147.757 32.7125 145.046 35.3039 145.046 38.8563C145.046 42.4086 147.757 45 151.447 45C153.129 45 154.794 44.4851 155.995 43.4726V38.7876H154.347V42.7004Z" fill="white"/>
<path d="M161.683 43.3697V39.4912H167.707V38.0325H161.683V34.3428H168.445V32.8498H159.967V44.8627H168.685V43.3697H161.683Z" fill="white"/>
<path d="M192.788 32.8498L189.475 42.6661L186.163 32.8498H184.584L181.204 42.6146L177.96 32.8498H176.193L180.208 44.8627H182.045L185.322 35.2696L188.6 44.8627H190.402L194.418 32.8498H192.788Z" fill="white"/>
<path d="M197.204 44.8627H198.92V32.8498H197.204V44.8627Z" fill="white"/>
<path d="M203.203 44.8627H208.265C212.127 44.8627 214.752 42.4258 214.752 38.8563C214.752 35.2867 212.127 32.8498 208.265 32.8498H203.203V44.8627ZM204.919 43.3697V34.3428H208.162C211.131 34.3428 213.036 36.1619 213.036 38.8563C213.036 41.5506 211.131 43.3697 208.162 43.3697H204.919Z" fill="white"/>
<path d="M226.39 42.7004C225.532 43.2495 224.589 43.4726 223.576 43.4726C220.813 43.4726 218.805 41.4991 218.805 38.8563C218.805 36.1791 220.813 34.2399 223.593 34.2399C224.949 34.2399 226.082 34.6689 227.077 35.6299L228.141 34.5659C227.043 33.3475 225.429 32.7125 223.525 32.7125C219.801 32.7125 217.089 35.3039 217.089 38.8563C217.089 42.4086 219.801 45 223.49 45C225.172 45 226.837 44.4851 228.038 43.4726V38.7876H226.39V42.7004Z" fill="white"/>
<path d="M233.726 43.3697V39.4912H239.75V38.0325H233.726V34.3428H240.488V32.8498H232.01V44.8627H240.728V43.3697H233.726Z" fill="white"/>
<path d="M246.579 44.8627H248.278V34.3428H252.396V32.8498H242.46V34.3428H246.579V44.8627Z" fill="white"/>
<defs>
<linearGradient id="paint0_linear_770_51311" x1="21.3571" y1="71.5" x2="19.9861" y2="52.9799" gradientUnits="userSpaceOnUse">
<stop/>
<stop offset="1" stop-opacity="0"/>
</linearGradient>
</defs>
</svg>
