<svg width="101" height="101" viewBox="0 0 101 101" fill="none" xmlns="http://www.w3.org/2000/svg">
<path d="M82.1662 18.9651L54.2834 39.6741L59.4397 27.4561L82.1662 18.9651Z" fill="#E2761B"/>
<path fill-rule="evenodd" clip-rule="evenodd" d="M82.6485 18.6992C82.7797 18.9403 82.7134 19.2413 82.493 19.405L54.6102 40.1139C54.4107 40.262 54.1367 40.2584 53.9413 40.1049C53.7458 39.9514 53.6772 39.6861 53.7739 39.4571L58.9301 27.2392C58.989 27.0995 59.1029 26.9903 59.2449 26.9372L81.9715 18.4463C82.2287 18.3502 82.5173 18.458 82.6485 18.6992ZM59.8532 27.8866L55.5749 38.0244L78.7105 20.8412L59.8532 27.8866Z" fill="#E2761B"/>
<path d="M17.7969 18.9652L45.4555 39.8703L40.5515 27.4561L17.7969 18.9652Z" fill="#E4761B"/>
<path fill-rule="evenodd" clip-rule="evenodd" d="M17.3127 18.6973C17.4444 18.4574 17.7321 18.3505 17.9885 18.4462L40.7431 26.9371C40.8893 26.9917 41.0056 27.1058 41.063 27.251L45.967 39.6651C46.0577 39.8949 45.9845 40.1569 45.7879 40.3064C45.5912 40.4559 45.3191 40.4562 45.1221 40.3073L17.4635 19.4022C17.2452 19.2372 17.181 18.9371 17.3127 18.6973ZM21.1382 20.798L44.2205 38.2442L40.1279 27.8841L21.1382 20.798Z" fill="#E4761B"/>
<path d="M72.1341 66.9632L64.708 78.3405L80.597 82.7121L85.1647 67.2154L72.1341 66.9632Z" fill="#E4761B"/>
<path fill-rule="evenodd" clip-rule="evenodd" d="M71.6707 66.6628C71.7745 66.5037 71.953 66.4093 72.1429 66.413L85.1735 66.6652C85.3454 66.6685 85.5058 66.7518 85.6074 66.8904C85.709 67.0291 85.7401 67.2072 85.6915 67.372L81.1238 82.8687C81.0388 83.1569 80.7386 83.3239 80.4489 83.2442L64.56 78.8727C64.3903 78.826 64.2531 78.7011 64.1908 78.5365C64.1284 78.3719 64.1484 78.1874 64.2446 78.0401L71.6707 66.6628ZM72.4268 67.5209L65.5804 78.0102L80.2195 82.0379L84.43 67.7532L72.4268 67.5209Z" fill="#E4761B"/>
<path d="M14.8545 67.2154L19.3942 82.7121L35.2832 78.3405L27.8571 66.9632L14.8545 67.2154Z" fill="#E4761B"/>
<path fill-rule="evenodd" clip-rule="evenodd" d="M27.8453 66.413C28.0352 66.4093 28.2137 66.5037 28.3175 66.6628L35.7436 78.0401C35.8398 78.1874 35.8598 78.3719 35.7975 78.5365C35.7351 78.7011 35.5979 78.826 35.4283 78.8727L19.5393 83.2442C19.2492 83.324 18.9488 83.1565 18.8642 82.8678L14.3245 67.3711C14.2762 67.2064 14.3075 67.0285 14.4091 66.8901C14.5107 66.7517 14.671 66.6685 14.8427 66.6652L27.8453 66.413ZM15.585 67.7532L19.7696 82.0377L34.4078 78.0102L27.5614 67.5209L15.585 67.7532Z" fill="#E4761B"/>
<path d="M34.3866 47.7431L29.959 54.4405L45.7359 55.1411L45.1754 38.1873L34.3866 47.7431Z" fill="#E4761B"/>
<path fill-rule="evenodd" clip-rule="evenodd" d="M45.3941 37.6818C45.5903 37.7662 45.72 37.9564 45.7271 38.1698L46.2875 55.1237C46.2926 55.2772 46.2334 55.4258 46.1242 55.5338C46.015 55.6417 45.8657 55.6993 45.7123 55.6924L29.9354 54.9919C29.7371 54.9831 29.5588 54.8683 29.4687 54.6915C29.3786 54.5146 29.3906 54.303 29.5001 54.1374L33.9277 47.4399C33.9542 47.3997 33.986 47.3632 34.022 47.3313L44.8108 37.7755C44.9707 37.6339 45.198 37.5974 45.3941 37.6818ZM34.8072 48.1083L30.9559 53.9339L45.1662 54.5649L44.6642 39.3778L34.8072 48.1083Z" fill="#E4761B"/>
<path d="M65.575 47.7419L54.646 37.99L54.2817 55.14L70.0306 54.4394L65.575 47.7419Z" fill="#E4761B"/>
<path fill-rule="evenodd" clip-rule="evenodd" d="M54.4259 37.4854C54.6232 37.3995 54.8523 37.4363 55.0128 37.5795L65.9417 47.3315C65.9767 47.3627 66.0076 47.3983 66.0336 47.4374L70.4893 54.1349C70.5994 54.3004 70.6118 54.5123 70.5219 54.6896C70.4319 54.8668 70.2535 54.9819 70.0549 54.9907L54.3061 55.6913C54.1538 55.6981 54.0055 55.6415 53.8964 55.5349C53.7874 55.4284 53.7274 55.2814 53.7306 55.129L54.0949 37.979C54.0995 37.764 54.2287 37.5712 54.4259 37.4854ZM55.1715 39.1983L54.8451 54.564L69.0311 53.9329L65.1551 48.1068L55.1715 39.1983Z" fill="#E4761B"/>
<path d="M35.282 78.3427L44.7537 73.719L36.571 67.3297L35.282 78.3427Z" fill="#E4761B"/>
<path fill-rule="evenodd" clip-rule="evenodd" d="M36.3587 66.8219C36.5425 66.7452 36.7533 66.7735 36.9103 66.8961L45.093 73.2853C45.2428 73.4023 45.3217 73.5881 45.3019 73.7771C45.2821 73.9661 45.1664 74.1316 44.9956 74.2149L35.5238 78.8387C35.3427 78.9271 35.1278 78.9096 34.9634 78.7931C34.799 78.6765 34.7113 78.4796 34.7347 78.2794L36.0238 67.2664C36.0469 67.0686 36.175 66.8987 36.3587 66.8219ZM37.0046 68.3681L35.9467 77.4057L43.7195 73.6113L37.0046 68.3681Z" fill="#E4761B"/>
<path d="M55.2075 73.719L64.7073 78.3427L63.3902 67.3297L55.2075 73.719Z" fill="#E4761B"/>
<path fill-rule="evenodd" clip-rule="evenodd" d="M63.6004 66.8217C63.784 66.8981 63.9122 67.0675 63.9358 67.265L65.2529 78.278C65.2768 78.4783 65.1895 78.6756 65.0252 78.7925C64.8608 78.9094 64.6458 78.9272 64.4645 78.839L54.9647 74.2152C54.7937 74.132 54.6778 73.9665 54.6578 73.7774C54.6379 73.5883 54.7169 73.4023 54.8667 73.2853L63.0494 66.8961C63.2062 66.7737 63.4167 66.7452 63.6004 66.8217ZM56.2411 73.6106L64.0385 77.4058L62.9574 68.3664L56.2411 73.6106Z" fill="#E4761B"/>
<path d="M64.7073 78.344L55.2075 73.7202L55.9641 79.9133L55.8801 82.5194L64.7073 78.344Z" fill="#D7C1B3"/>
<path fill-rule="evenodd" clip-rule="evenodd" d="M54.8858 73.2724C55.0502 73.1551 55.2655 73.1371 55.4471 73.2255L64.9469 77.8493C65.1375 77.942 65.258 78.1359 65.2568 78.3479C65.2556 78.5598 65.1329 78.7524 64.9413 78.843L56.1141 83.0184C55.9405 83.1005 55.7367 83.0864 55.5762 82.981C55.4156 82.8757 55.3214 82.6944 55.3276 82.5024L55.4103 79.9388L54.6589 73.7878C54.6344 73.5874 54.7215 73.3896 54.8858 73.2724ZM55.8758 74.66L56.5096 79.8473C56.513 79.8753 56.5143 79.9036 56.5134 79.9319L56.4584 81.6362L63.4318 78.3377L55.8758 74.66Z" fill="#D7C1B3"/>
<path d="M35.2812 78.344L44.1085 82.5194L44.0524 79.9133L44.753 73.7202L35.2812 78.344Z" fill="#D7C1B3"/>
<path fill-rule="evenodd" clip-rule="evenodd" d="M45.0716 73.2707C45.236 73.3867 45.3241 73.5831 45.3014 73.7829L44.605 79.9392L44.6603 82.5083C44.6644 82.6993 44.5694 82.8787 44.4091 82.9826C44.2489 83.0865 44.0463 83.1 43.8736 83.0184L35.0464 78.843C34.8549 78.7524 34.7323 78.56 34.731 78.3482C34.7297 78.1363 34.8499 77.9425 35.0403 77.8495L44.5121 73.2257C44.6928 73.1375 44.9073 73.1547 45.0716 73.2707ZM36.5544 78.3369L43.5391 81.6408L43.5023 79.9259C43.5017 79.9013 43.5029 79.8766 43.5056 79.8521L44.0933 74.6567L36.5544 78.3369Z" fill="#D7C1B3"/>
<path d="M44.2499 63.2372L36.3474 60.9113L41.924 58.3612L44.2499 63.2372Z" fill="#233447"/>
<path fill-rule="evenodd" clip-rule="evenodd" d="M41.6939 57.8609C41.9676 57.7358 42.291 57.8532 42.4205 58.1248L44.7464 63.0008C44.8401 63.1971 44.8095 63.4301 44.6684 63.5956C44.5273 63.7611 44.302 63.8282 44.0934 63.7667L36.1909 61.4409C35.9703 61.3759 35.8132 61.1808 35.7968 60.9514C35.7804 60.7221 35.9082 60.5066 36.1173 60.411L41.6939 57.8609ZM37.9172 60.7999L43.2199 62.3607L41.6591 59.0888L37.9172 60.7999Z" fill="#233447"/>
<path d="M55.7114 63.2372L58.0373 58.3612L63.6419 60.9113L55.7114 63.2372Z" fill="#233447"/>
<path fill-rule="evenodd" clip-rule="evenodd" d="M57.5388 58.1248C57.6681 57.8536 57.9909 57.736 58.2644 57.8605L63.869 60.4105C64.0786 60.5059 64.2068 60.7215 64.1905 60.9512C64.1742 61.1809 64.0168 61.3762 63.7959 61.441L55.8654 63.7669C55.6568 63.8281 55.4317 63.7609 55.2907 63.5954C55.1498 63.4299 55.1193 63.197 55.2129 63.0008L57.5388 58.1248ZM58.3006 59.0879L56.7388 62.3621L62.0641 60.8003L58.3006 59.0879Z" fill="#233447"/>
<path d="M35.2823 78.344L36.6274 66.9667L27.8562 67.2189L35.2823 78.344Z" fill="#CD6116"/>
<path fill-rule="evenodd" clip-rule="evenodd" d="M37.0339 66.592C37.142 66.7102 37.1933 66.8696 37.1745 67.0287L35.8294 78.406C35.8023 78.6352 35.6352 78.8233 35.4107 78.8772C35.1862 78.931 34.9519 78.8392 34.8237 78.6472L27.3977 67.5221C27.2864 67.3554 27.2744 67.1414 27.3664 66.9633C27.4584 66.7852 27.6398 66.671 27.8402 66.6653L36.6114 66.4131C36.7715 66.4085 36.9257 66.4738 37.0339 66.592ZM28.8673 67.7384L34.9104 76.7917L36.005 67.5332L28.8673 67.7384Z" fill="#CD6116"/>
<path d="M63.3623 66.9667L64.7074 78.344L72.1335 67.2189L63.3623 66.9667Z" fill="#CD6116"/>
<path fill-rule="evenodd" clip-rule="evenodd" d="M62.9555 66.592C63.0636 66.4738 63.2179 66.4085 63.378 66.4131L72.1492 66.6653C72.3495 66.671 72.531 66.7852 72.623 66.9633C72.715 67.1414 72.703 67.3554 72.5917 67.5221L65.1656 78.6472C65.0375 78.8392 64.8032 78.931 64.5787 78.8772C64.3542 78.8233 64.1871 78.6352 64.16 78.406L62.8149 67.0287C62.796 66.8696 62.8474 66.7102 62.9555 66.592ZM63.9844 67.5332L65.079 76.7917L71.1221 67.7384L63.9844 67.5332Z" fill="#CD6116"/>
<path d="M70.0316 54.4393L54.2827 55.1399L55.7399 63.2385L58.0658 58.3625L63.6704 60.9126L70.0316 54.4393Z" fill="#CD6116"/>
<path fill-rule="evenodd" clip-rule="evenodd" d="M70.5338 54.2157C70.626 54.4226 70.5823 54.6648 70.4235 54.8263L64.0623 61.2996C63.9 61.4648 63.6518 61.5109 63.441 61.415L58.3291 59.0891L56.2362 63.4765C56.1332 63.6925 55.9026 63.8173 55.6654 63.7855C55.4282 63.7536 55.2387 63.5724 55.1964 63.3369L53.7392 55.2382C53.711 55.0818 53.7518 54.9208 53.851 54.7966C53.9503 54.6724 54.0983 54.5971 54.2571 54.5901L70.006 53.8895C70.2322 53.8794 70.4416 54.0088 70.5338 54.2157ZM54.9356 55.6632L55.9781 61.4574L57.5673 58.126C57.6966 57.8548 58.0194 57.7372 58.2929 57.8616L63.5465 60.252L68.6556 55.0529L54.9356 55.6632Z" fill="#CD6116"/>
<path d="M36.3482 60.9126L41.9528 58.3625L44.2507 63.2385L45.7359 55.1399L29.959 54.4393L36.3482 60.9126Z" fill="#CD6116"/>
<path fill-rule="evenodd" clip-rule="evenodd" d="M29.4555 54.2163C29.5475 54.0091 29.7571 53.8794 29.9835 53.8895L45.7604 54.5901C45.9196 54.5971 46.0679 54.6727 46.1671 54.7973C46.2663 54.9219 46.3068 55.0834 46.2781 55.2401L44.7928 63.3387C44.7497 63.5742 44.5594 63.7548 44.3219 63.7858C44.0845 63.8167 43.8543 63.6908 43.7522 63.4742L41.6862 59.0901L36.5766 61.415C36.3662 61.5107 36.1184 61.465 35.9561 61.3005L29.5669 54.8272C29.4076 54.6659 29.3634 54.4234 29.4555 54.2163ZM31.3384 55.053L36.4703 60.2524L41.7246 57.8616C41.9991 57.7368 42.3229 57.8556 42.4514 58.1283L44.0181 61.4527L45.0798 55.6632L31.3384 55.053Z" fill="#CD6116"/>
<path d="M29.959 54.4388L36.5724 67.3294L36.3482 60.9121L29.959 54.4388Z" fill="#E4751F"/>
<path fill-rule="evenodd" clip-rule="evenodd" d="M29.6368 53.9931C29.8572 53.8336 30.161 53.8588 30.3521 54.0524L36.7413 60.5257C36.8384 60.6241 36.895 60.7555 36.8999 60.8936L37.124 67.3109C37.1331 67.5689 36.9618 67.7985 36.712 67.8635C36.4622 67.9285 36.2007 67.8114 36.0829 67.5817L29.4695 54.6912C29.3453 54.4491 29.4164 54.1526 29.6368 53.9931ZM32.0879 57.3802L35.9363 64.8812L35.8058 61.147L32.0879 57.3802Z" fill="#E4751F"/>
<path d="M63.6711 60.9121L63.3909 67.3294L70.0323 54.4388L63.6711 60.9121Z" fill="#E4751F"/>
<path fill-rule="evenodd" clip-rule="evenodd" d="M70.3544 53.993C70.5752 54.1527 70.6461 54.4498 70.5213 54.692L63.8799 67.5825C63.7614 67.8126 63.4986 67.9292 63.2485 67.8628C62.9983 67.7963 62.8281 67.5647 62.8394 67.3061L63.1196 60.8888C63.1256 60.7528 63.1817 60.6237 63.2771 60.5266L69.6383 54.0533C69.8293 53.859 70.1336 53.8333 70.3544 53.993ZM64.2116 61.1483L64.0501 64.8455L67.8766 57.4187L64.2116 61.1483Z" fill="#E4751F"/>
<path d="M45.7362 55.1415L44.251 63.2402L46.1005 72.796L46.5208 60.2137L45.7362 55.1415Z" fill="#E4751F"/>
<path fill-rule="evenodd" clip-rule="evenodd" d="M45.7437 54.5878C46.0126 54.5916 46.2396 54.7889 46.2807 55.0546L47.0653 60.1268C47.0706 60.1607 47.0726 60.1951 47.0715 60.2294L46.6511 72.8117C46.6418 73.092 46.4234 73.3206 46.1438 73.3427C45.8642 73.3648 45.6126 73.1734 45.5593 72.898L43.7097 63.3422C43.6967 63.2748 43.6964 63.2056 43.7087 63.1381L45.194 55.0395C45.2425 54.775 45.4748 54.5841 45.7437 54.5878ZM44.8116 63.2347L45.7127 67.8903L45.9681 60.2442L45.6899 58.4457L44.8116 63.2347Z" fill="#E4751F"/>
<path d="M54.283 55.1415L53.5264 60.1857L53.8626 72.796L55.7402 63.2402L54.283 55.1415Z" fill="#E4751F"/>
<path fill-rule="evenodd" clip-rule="evenodd" d="M54.2746 54.5878C54.5443 54.5839 54.7772 54.7758 54.825 55.0413L56.2822 63.1399C56.2943 63.2074 56.2938 63.2765 56.2805 63.3437L54.403 72.8995C54.3489 73.1752 54.0961 73.366 53.8162 73.3425C53.5363 73.319 53.3188 73.0888 53.3113 72.808L52.975 60.1977C52.9742 60.1654 52.9762 60.1332 52.981 60.1013L53.7376 55.0571C53.7776 54.7904 54.0048 54.5918 54.2746 54.5878ZM54.3319 58.5252L54.0782 60.2168L54.2806 67.8057L55.179 63.233L54.3319 58.5252Z" fill="#E4751F"/>
<path d="M55.7386 63.2388L53.8611 72.7946L55.2062 73.7194L63.3889 67.3301L63.6691 60.9129L55.7386 63.2388Z" fill="#F6851B"/>
<path fill-rule="evenodd" clip-rule="evenodd" d="M64.0098 60.4793C64.1498 60.589 64.2283 60.7595 64.2205 60.9372L63.9403 67.3544C63.9333 67.5156 63.856 67.6655 63.7289 67.7648L55.5462 74.154C55.3566 74.302 55.093 74.31 54.8948 74.1737L53.5497 73.249C53.3686 73.1245 53.2788 72.9043 53.3212 72.6886L55.1987 63.1328C55.2383 62.931 55.387 62.7681 55.5844 62.7102L63.5148 60.3843C63.6855 60.3343 63.8698 60.3696 64.0098 60.4793ZM56.2157 63.6737L54.4725 72.5458L55.1863 73.0366L62.8502 67.0524L63.0857 61.6588L56.2157 63.6737Z" fill="#F6851B"/>
<path d="M36.3474 60.9129L36.5716 67.3301L44.7543 73.7194L46.0994 72.7946L44.2499 63.2388L36.3474 60.9129Z" fill="#F6851B"/>
<path fill-rule="evenodd" clip-rule="evenodd" d="M36.0087 60.4777C36.1487 60.3691 36.3322 60.3345 36.5021 60.3845L44.4046 62.7104C44.6022 62.7685 44.7509 62.9321 44.7901 63.1343L46.6396 72.6901C46.6812 72.9054 46.5914 73.1248 46.4107 73.249L45.0656 74.1737C44.8675 74.31 44.6038 74.302 44.4142 74.154L36.2315 67.7648C36.1031 67.6645 36.0256 67.5125 36.0199 67.3496L35.7957 60.9324C35.7896 60.7554 35.8688 60.5862 36.0087 60.4777ZM36.924 61.6576L37.1125 67.0542L44.7741 73.0366L45.4888 72.5452L43.7717 63.673L36.924 61.6576Z" fill="#F6851B"/>
<path d="M55.8788 82.5168L55.9629 79.9107L55.2623 79.2942H44.6977L44.0531 79.9107L44.1092 82.5168L35.282 78.3414L38.3645 80.8635L44.6136 85.2071H55.3464L61.6235 80.8635L64.706 78.3414L55.8788 82.5168Z" fill="#C0AD9E"/>
<path fill-rule="evenodd" clip-rule="evenodd" d="M34.8163 78.0481C34.9651 77.8127 35.266 77.7253 35.5178 77.8444L43.5392 81.6386L43.5023 79.9237C43.4989 79.7692 43.5606 79.6204 43.6723 79.5136L44.3168 78.8971C44.4194 78.799 44.5559 78.7442 44.6978 78.7442H55.2624C55.3964 78.7442 55.5259 78.7931 55.6265 78.8816L56.3271 79.4981C56.4506 79.6069 56.5191 79.7651 56.5138 79.9296L56.4588 81.634L64.4705 77.8444C64.7222 77.7253 65.0231 77.8127 65.1719 78.0481C65.3207 78.2834 65.2706 78.5928 65.0551 78.7691L61.9726 81.2912C61.9612 81.3005 61.9493 81.3094 61.9372 81.3178L55.6601 85.6614C55.5679 85.7251 55.4585 85.7593 55.3465 85.7593H44.6137C44.5013 85.7593 44.3915 85.7249 44.2992 85.6607L38.0501 81.3172C38.0383 81.309 38.0268 81.3003 38.0156 81.2912L34.9331 78.7691C34.7176 78.5928 34.6675 78.2834 34.8163 78.0481ZM39.3412 80.8722L44.7864 84.6571H55.1744L60.6376 80.8767L56.1146 83.0162C55.941 83.0983 55.7372 83.0841 55.5766 82.9788C55.416 82.8735 55.3219 82.6921 55.3281 82.5002L55.4038 80.1539L55.0544 79.8465H44.9189L44.6095 80.1425L44.6603 82.5061C44.6644 82.6971 44.5694 82.8765 44.4091 82.9804C44.2489 83.0843 44.0463 83.0978 43.8737 83.0162L39.3412 80.8722Z" fill="#C0AD9E"/>
<path d="M55.2078 73.7173L53.8627 72.7925H46.1004L44.7553 73.7173L44.0547 79.9103L44.6992 79.2938H55.2639L55.9644 79.9103L55.2078 73.7173Z" fill="#161616"/>
<path fill-rule="evenodd" clip-rule="evenodd" d="M45.787 72.3425C45.8789 72.2794 45.9878 72.2455 46.0992 72.2455H53.8616C53.9731 72.2455 54.082 72.2794 54.1738 72.3425L55.5189 73.2673C55.6491 73.3568 55.7346 73.4978 55.7537 73.6546L56.5104 79.8476C56.5381 80.0746 56.4227 80.2952 56.2204 80.4019C56.0181 80.5086 55.7709 80.4793 55.5992 80.3282L55.0548 79.8491H44.9192L44.4345 80.3127C44.2669 80.4731 44.0167 80.5113 43.8088 80.4082C43.601 80.3052 43.4799 80.083 43.506 79.8525L44.2065 73.6595C44.2245 73.5008 44.3103 73.3577 44.4419 73.2673L45.787 72.3425ZM46.2704 73.3478L45.2735 74.0331L44.7403 78.7468H55.2627C55.2636 78.7468 55.2646 78.7468 55.2655 78.7468L54.6898 74.0348L53.6904 73.3478H46.2704Z" fill="#161616"/>
<path d="M83.3425 41.0192L85.7244 29.5858L82.1655 18.9651L55.2075 38.9735L65.576 47.7447L80.232 52.0322L83.4826 48.2491L82.0815 47.2402L84.3233 45.1946L82.5859 43.8495L84.8277 42.1401L83.3425 41.0192Z" fill="#763D16"/>
<path fill-rule="evenodd" clip-rule="evenodd" d="M82.3292 18.4367C82.4976 18.4896 82.6304 18.62 82.6865 18.7873L86.2454 29.408C86.2764 29.5006 86.2823 29.5999 86.2624 29.6955L83.9517 40.787L85.1581 41.6975C85.2957 41.8013 85.3768 41.9636 85.3772 42.136C85.3776 42.3084 85.2974 42.4711 85.1603 42.5756L83.4888 43.8501L84.6591 44.7561C84.7877 44.8557 84.8658 45.007 84.8724 45.1696C84.8789 45.3322 84.8133 45.4893 84.6932 45.599L82.9529 47.187L83.803 47.7991C83.9283 47.8893 84.01 48.0279 84.0283 48.1812C84.0465 48.3345 83.9996 48.4885 83.899 48.6055L80.6484 52.3886C80.5073 52.5528 80.2833 52.6192 80.0756 52.5584L65.4196 48.2709C65.3457 48.2493 65.2772 48.2124 65.2184 48.1627L54.85 39.3915C54.7215 39.2829 54.6497 39.1214 54.6551 38.9533C54.6604 38.7851 54.7423 38.6285 54.8774 38.5282L81.8355 18.5199C81.9772 18.4147 82.1608 18.3838 82.3292 18.4367ZM56.0926 38.999L65.8412 47.2458L80.044 51.4007L82.6716 48.3427L81.7578 47.6848C81.6231 47.5878 81.5393 47.4352 81.5297 47.2694C81.5201 47.1036 81.5857 46.9424 81.7084 46.8304L83.4661 45.2265L82.2469 44.2826C82.1115 44.1777 82.0325 44.016 82.0332 43.8447C82.0338 43.6735 82.114 43.5123 82.2501 43.4085L83.9142 42.1396L83.0089 41.4564C82.8387 41.3279 82.7579 41.1128 82.8014 40.9041L85.1529 29.6168L81.8826 19.8575L56.0926 38.999Z" fill="#763D16"/>
<path d="M14.2644 29.5858L16.6464 41.0192L15.1331 42.1401L17.3749 43.8495L15.6655 45.1946L17.9074 47.2402L16.5062 48.2491L19.7289 52.0322L34.3849 47.7447L44.7533 38.9735L17.7953 18.9651L14.2644 29.5858Z" fill="#763D16"/>
<path fill-rule="evenodd" clip-rule="evenodd" d="M17.6303 18.4368C17.7988 18.3836 17.9826 18.4145 18.1246 18.5199L45.0826 38.5282C45.2177 38.6285 45.2996 38.785 45.305 38.9532C45.3103 39.1214 45.2385 39.2828 45.1101 39.3915L34.7416 48.1627C34.6828 48.2124 34.6143 48.2493 34.5404 48.2709L19.8844 52.5584C19.6759 52.6194 19.451 52.5522 19.3102 52.3868L16.0875 48.6037C15.9877 48.4865 15.9414 48.3329 15.9599 48.18C15.9785 48.0272 16.0601 47.8891 16.185 47.7991L17.0352 47.187L15.2949 45.5989C15.1753 45.4898 15.1097 45.3336 15.1156 45.1717C15.1215 45.0099 15.1983 44.8589 15.3256 44.7587L16.4758 43.8536L14.7998 42.5756C14.662 42.4705 14.5816 42.3068 14.5828 42.1335C14.584 41.9602 14.6667 41.7976 14.8059 41.6945L16.0357 40.7835L13.7257 29.6955C13.7059 29.6003 13.7116 29.5015 13.7423 29.4092L17.2731 18.7885C17.3289 18.6208 17.4617 18.49 17.6303 18.4368ZM18.0789 19.8586L14.835 29.6161L17.1867 40.904C17.2306 41.1145 17.148 41.3313 16.9752 41.4593L16.0512 42.1437L17.7099 43.4085C17.8455 43.5118 17.9256 43.6721 17.9269 43.8425C17.9282 44.013 17.8505 44.1744 17.7166 44.2799L16.5181 45.2229L18.2797 46.8304C18.4023 46.9423 18.468 47.1036 18.4584 47.2694C18.4488 47.4351 18.365 47.5877 18.2302 47.6848L17.3144 48.3442L19.9177 51.4002L34.1189 47.2458L43.8675 38.999L18.0789 19.8586Z" fill="#763D16"/>
<path d="M80.2326 52.0286L65.5767 47.7411L70.0323 54.4386L63.3909 67.3291L72.134 67.217H85.1646L80.2326 52.0286Z" fill="#F6851B"/>
<path fill-rule="evenodd" clip-rule="evenodd" d="M65.1308 47.4153C65.2681 47.2288 65.5073 47.1479 65.7295 47.2129L80.3855 51.5004C80.5604 51.5516 80.6987 51.6859 80.7549 51.8592L85.6869 67.0476C85.7414 67.2154 85.7123 67.3991 85.6086 67.5418C85.5049 67.6845 85.3392 67.7689 85.1628 67.7689H72.1358L63.3961 67.881C63.2026 67.8834 63.0221 67.7843 62.9203 67.6198C62.8185 67.4553 62.8105 67.2494 62.8991 67.0775L69.3921 54.4749L65.1159 48.0471C64.9877 47.8543 64.9936 47.6019 65.1308 47.4153ZM66.871 48.6953L70.4893 54.1341C70.6 54.3006 70.6119 54.514 70.5203 54.6918L64.2989 66.7671L72.1321 66.6666L84.4044 66.6667L79.7965 52.4766L66.871 48.6953Z" fill="#F6851B"/>
<path d="M34.3864 47.7411L19.7305 52.0286L14.8545 67.217H27.8571L36.5722 67.3291L29.9588 54.4386L34.3864 47.7411Z" fill="#F6851B"/>
<path fill-rule="evenodd" clip-rule="evenodd" d="M34.8288 47.4147C34.9661 47.6008 34.9726 47.8529 34.8451 48.0458L30.5951 54.4745L37.0615 67.0783C37.1497 67.2503 37.1414 67.4559 37.0396 67.6202C36.9377 67.7845 36.7573 67.8834 36.564 67.881L27.8523 67.7689H14.8534C14.6773 67.7689 14.5118 67.6848 14.4081 67.5425C14.3043 67.4002 14.2748 67.217 14.3286 67.0493L19.2046 51.8609C19.2605 51.6868 19.3991 51.5518 19.5746 51.5004L34.2306 47.2129C34.4526 47.148 34.6915 47.2286 34.8288 47.4147ZM20.1647 52.4762L15.6091 66.6667H27.8631L35.6629 66.767L29.4674 54.6909C29.3765 54.5138 29.3882 54.3015 29.498 54.1354L33.0956 48.6934L20.1647 52.4762Z" fill="#F6851B"/>
<path d="M54.2827 55.1395L55.2075 38.9703L59.467 27.4529H40.5515L44.7549 38.9703L45.7358 55.1395L46.072 60.2397L46.1 72.794H53.8624L53.9184 60.2397L54.2827 55.1395Z" fill="#F6851B"/>
<path fill-rule="evenodd" clip-rule="evenodd" d="M40.0988 27.1378C40.2019 26.9904 40.3705 26.9026 40.5504 26.9026H59.4659C59.6462 26.9026 59.8151 26.9908 59.9181 27.1387C60.0212 27.2867 60.0453 27.4757 59.9828 27.6448L55.7519 39.0849L54.8314 55.1796L54.4683 60.2614L54.4124 72.7972C54.411 73.1006 54.1647 73.3458 53.8613 73.3458H46.0989C45.795 73.3458 45.5485 73.0999 45.5478 72.796L45.5198 60.2592L45.1847 55.1766L45.1845 55.1737L44.2086 39.0846L40.0327 27.6426C39.971 27.4736 39.9957 27.2852 40.0988 27.1378ZM41.3382 28.0048L45.2715 38.7821C45.2898 38.8322 45.3007 38.8846 45.3039 38.9377L46.2846 55.104L46.2847 55.1069L46.6208 60.2042C46.6216 60.2159 46.622 60.2276 46.622 60.2392L46.6488 72.2436H53.3126L53.3662 60.238C53.3663 60.2257 53.3667 60.2135 53.3676 60.2012L53.7316 55.1049L54.6562 38.9396C54.6593 38.885 54.6705 38.8312 54.6895 38.7799L58.6744 28.0048H41.3382Z" fill="#F6851B"/>
</svg>
