<svg width="10" height="5" viewBox="0 0 10 5" fill="none" xmlns="http://www.w3.org/2000/svg">
<path d="M1.0225 0.308114C1.1397 0.190944 1.29865 0.125122 1.46437 0.125122C1.6301 0.125122 1.78904 0.190944 1.90625 0.308114L5 3.40186L8.09375 0.308114C8.21163 0.194265 8.3695 0.131268 8.53338 0.132692C8.69725 0.134116 8.85401 0.199847 8.96989 0.315727C9.08577 0.431607 9.1515 0.588365 9.15292 0.752238C9.15434 0.916111 9.09135 1.07399 8.9775 1.19186L5.44187 4.72749C5.32467 4.84466 5.16573 4.91048 5 4.91048C4.83427 4.91048 4.67533 4.84466 4.55812 4.72749L1.0225 1.19186C0.90533 1.07466 0.839508 0.915716 0.839508 0.749989C0.839508 0.584261 0.90533 0.425319 1.0225 0.308114Z" fill="black"/>
</svg>
