<svg width="177" height="49" viewBox="0 0 177 49" fill="none" xmlns="http://www.w3.org/2000/svg">
<path d="M9.69727 24.0608C9.69727 16.2953 15.9925 10 23.7581 10V10C31.5237 10 37.819 16.2953 37.819 24.0608V24.0608C37.819 31.8264 31.5237 38.1217 23.7581 38.1217V38.1217C15.9925 38.1217 9.69727 31.8264 9.69727 24.0608V24.0608Z" fill="#E22440"/>
<path d="M26.7533 32.8356L24.7626 30.8449C24.1973 30.2795 23.2831 30.2795 22.7238 30.8449L20.7331 32.8356C20.1497 33.419 19.1995 33.419 18.6161 32.8356L17.6538 31.8733L20.703 28.8241C22.381 27.1461 25.0994 27.1461 26.7774 28.8241L29.8266 31.8733L28.8643 32.8356C28.2869 33.419 27.3427 33.419 26.7533 32.8356Z" fill="white"/>
<path d="M15.9457 30.1593L14.9834 29.197C14.4001 28.6136 14.4001 27.6634 14.9834 27.08L16.9741 25.0893C17.5395 24.5239 17.5395 23.6098 16.9741 23.0505L14.9834 21.0597C14.4001 20.4764 14.4001 19.5261 14.9834 18.9427L15.9457 17.9805L18.9949 21.0297C20.6729 22.7076 20.6729 25.4261 18.9949 27.104L15.9457 30.1593Z" fill="white"/>
<path d="M23.77 20.5546C22.6694 20.5546 21.5688 20.1396 20.7328 19.2976L17.6836 16.2484L18.6459 15.2861C19.2292 14.7027 20.1795 14.7027 20.7629 15.2861L22.7536 17.2768C23.3129 17.8361 24.2331 17.8361 24.7924 17.2768L26.7831 15.2861C27.3665 14.7027 28.3167 14.7027 28.9001 15.2861L29.8624 16.2484L26.8132 19.2976C25.9712 20.1276 24.8706 20.5546 23.77 20.5546Z" fill="white"/>
<path d="M31.5704 30.1352L28.5212 27.086C26.8432 25.408 26.8432 22.6896 28.5212 21.0116L31.5704 17.9624L32.5327 18.9247C33.116 19.5081 33.116 20.4583 32.5327 21.0417L30.5419 23.0324C29.9766 23.5978 29.9766 24.5119 30.5419 25.0712L32.5327 27.0619C33.116 27.6453 33.116 28.5956 32.5327 29.179L31.5704 30.1352Z" fill="white"/>
<path d="M43.3945 19.0413V13.3994H45.4056C45.8445 13.3994 46.2082 13.4792 46.4965 13.639C46.7849 13.7988 47.0007 14.0174 47.1439 14.2947C47.2872 14.5702 47.3588 14.8806 47.3588 15.2258C47.3588 15.5729 47.2862 15.8852 47.1412 16.1625C46.9979 16.438 46.7812 16.6565 46.491 16.8181C46.2027 16.9779 45.8399 17.0578 45.4028 17.0578H44.0199V16.336H45.3257C45.603 16.336 45.828 16.2883 46.0006 16.1928C46.1733 16.0955 46.3 15.9632 46.3808 15.7961C46.4616 15.629 46.502 15.4389 46.502 15.2258C46.502 15.0128 46.4616 14.8236 46.3808 14.6583C46.3 14.493 46.1724 14.3636 45.9979 14.2699C45.8252 14.1762 45.5975 14.1294 45.3147 14.1294H44.2458V19.0413H43.3945Z" fill="white"/>
<path d="M50.2624 19.1267C49.8657 19.1267 49.5195 19.0358 49.2238 18.854C48.9281 18.6722 48.6986 18.4178 48.5351 18.0909C48.3717 17.764 48.2899 17.382 48.2899 16.9449C48.2899 16.5059 48.3717 16.1221 48.5351 15.7933C48.6986 15.4646 48.9281 15.2093 49.2238 15.0275C49.5195 14.8457 49.8657 14.7547 50.2624 14.7547C50.6591 14.7547 51.0053 14.8457 51.301 15.0275C51.5967 15.2093 51.8263 15.4646 51.9897 15.7933C52.1532 16.1221 52.2349 16.5059 52.2349 16.9449C52.2349 17.382 52.1532 17.764 51.9897 18.0909C51.8263 18.4178 51.5967 18.6722 51.301 18.854C51.0053 19.0358 50.6591 19.1267 50.2624 19.1267ZM50.2652 18.4353C50.5223 18.4353 50.7353 18.3673 50.9043 18.2314C51.0733 18.0955 51.1982 17.9146 51.279 17.6887C51.3616 17.4628 51.4029 17.2139 51.4029 16.9421C51.4029 16.6721 51.3616 16.4242 51.279 16.1983C51.1982 15.9706 51.0733 15.7878 50.9043 15.6501C50.7353 15.5123 50.5223 15.4435 50.2652 15.4435C50.0062 15.4435 49.7913 15.5123 49.6205 15.6501C49.4516 15.7878 49.3258 15.9706 49.2431 16.1983C49.1623 16.4242 49.1219 16.6721 49.1219 16.9421C49.1219 17.2139 49.1623 17.4628 49.2431 17.6887C49.3258 17.9146 49.4516 18.0955 49.6205 18.2314C49.7913 18.3673 50.0062 18.4353 50.2652 18.4353Z" fill="white"/>
<path d="M54.1853 19.0413L52.9401 14.8098H53.7914L54.6206 17.9173H54.6619L55.4939 14.8098H56.3452L57.1716 17.9036H57.2129L58.0367 14.8098H58.8879L57.6455 19.0413H56.8052L55.9457 15.9862H55.8823L55.0228 19.0413H54.1853Z" fill="white"/>
<path d="M61.607 19.1267C61.1901 19.1267 60.831 19.0376 60.5298 18.8595C60.2304 18.6795 59.999 18.427 59.8356 18.1019C59.674 17.775 59.5932 17.3921 59.5932 16.9531C59.5932 16.5197 59.674 16.1377 59.8356 15.8071C59.999 15.4765 60.2268 15.2185 60.5188 15.033C60.8126 14.8475 61.1561 14.7547 61.5491 14.7547C61.7879 14.7547 62.0193 14.7942 62.2433 14.8732C62.4674 14.9522 62.6685 15.0761 62.8467 15.2451C63.0248 15.4141 63.1653 15.6336 63.2681 15.9035C63.371 16.1717 63.4224 16.4977 63.4224 16.8815V17.1735H60.0587V16.5564H62.6152C62.6152 16.3397 62.5712 16.1478 62.483 15.9807C62.3949 15.8117 62.2709 15.6785 62.1111 15.5812C61.9532 15.4839 61.7677 15.4352 61.5546 15.4352C61.3232 15.4352 61.1212 15.4921 60.9485 15.606C60.7777 15.718 60.6455 15.865 60.5518 16.0468C60.46 16.2268 60.4141 16.4224 60.4141 16.6336V17.1157C60.4141 17.3985 60.4637 17.6391 60.5629 17.8374C60.6639 18.0358 60.8044 18.1873 60.9844 18.292C61.1643 18.3948 61.3746 18.4463 61.6152 18.4463C61.7713 18.4463 61.9137 18.4242 62.0422 18.3802C62.1708 18.3342 62.2819 18.2663 62.3756 18.1763C62.4692 18.0863 62.5409 17.9752 62.5904 17.843L63.3701 17.9835C63.3076 18.213 63.1956 18.4141 63.034 18.5868C62.8742 18.7576 62.6731 18.8907 62.4307 18.9862C62.1901 19.0799 61.9155 19.1267 61.607 19.1267Z" fill="white"/>
<path d="M64.5788 19.0413V14.8098H65.3749V15.482H65.419C65.4961 15.2543 65.6321 15.0752 65.8267 14.9448C66.0232 14.8126 66.2455 14.7465 66.4934 14.7465C66.5448 14.7465 66.6054 14.7483 66.6752 14.752C66.7469 14.7557 66.8029 14.7603 66.8433 14.7658V15.5537C66.8102 15.5445 66.7514 15.5344 66.667 15.5234C66.5825 15.5105 66.498 15.5041 66.4135 15.5041C66.2188 15.5041 66.0453 15.5454 65.8928 15.628C65.7422 15.7089 65.6229 15.8218 65.5347 15.9669C65.4466 16.1101 65.4025 16.2736 65.4025 16.4573V19.0413H64.5788Z" fill="white"/>
<path d="M69.4707 19.1267C69.0538 19.1267 68.6948 19.0376 68.3936 18.8595C68.0942 18.6795 67.8628 18.427 67.6994 18.1019C67.5377 17.775 67.4569 17.3921 67.4569 16.9531C67.4569 16.5197 67.5377 16.1377 67.6994 15.8071C67.8628 15.4765 68.0905 15.2185 68.3826 15.033C68.6764 14.8475 69.0199 14.7547 69.4129 14.7547C69.6516 14.7547 69.883 14.7942 70.1071 14.8732C70.3312 14.9522 70.5323 15.0761 70.7104 15.2451C70.8886 15.4141 71.0291 15.6336 71.1319 15.9035C71.2348 16.1717 71.2862 16.4977 71.2862 16.8815V17.1735H67.9225V16.5564H70.479C70.479 16.3397 70.4349 16.1478 70.3468 15.9807C70.2586 15.8117 70.1347 15.6785 69.9749 15.5812C69.8169 15.4839 69.6314 15.4352 69.4184 15.4352C69.187 15.4352 68.985 15.4921 68.8123 15.606C68.6415 15.718 68.5093 15.865 68.4156 16.0468C68.3238 16.2268 68.2779 16.4224 68.2779 16.6336V17.1157C68.2779 17.3985 68.3275 17.6391 68.4266 17.8374C68.5276 18.0358 68.6681 18.1873 68.8481 18.292C69.0281 18.3948 69.2384 18.4463 69.479 18.4463C69.6351 18.4463 69.7774 18.4242 69.906 18.3802C70.0346 18.3342 70.1457 18.2663 70.2393 18.1763C70.333 18.0863 70.4046 17.9752 70.4542 17.843L71.2338 17.9835C71.1714 18.213 71.0594 18.4141 70.8978 18.5868C70.738 18.7576 70.5369 18.8907 70.2944 18.9862C70.0538 19.0799 69.7793 19.1267 69.4707 19.1267Z" fill="white"/>
<path d="M74.0266 19.124C73.685 19.124 73.3801 19.0367 73.112 18.8623C72.8457 18.6859 72.6363 18.4353 72.4839 18.1102C72.3333 17.7833 72.258 17.3912 72.258 16.9338C72.258 16.4765 72.3342 16.0853 72.4866 15.7603C72.6409 15.4352 72.8521 15.1863 73.1202 15.0137C73.3884 14.8411 73.6923 14.7547 74.0321 14.7547C74.2947 14.7547 74.5059 14.7988 74.6657 14.887C74.8273 14.9733 74.9522 15.0743 75.0404 15.19C75.1304 15.3057 75.2002 15.4077 75.2498 15.4958H75.2993V13.3994H76.123V19.0413H75.3186V18.3829H75.2498C75.2002 18.4729 75.1285 18.5757 75.0349 18.6915C74.943 18.8072 74.8163 18.9082 74.6547 18.9945C74.4931 19.0808 74.2837 19.124 74.0266 19.124ZM74.2084 18.4215C74.4453 18.4215 74.6455 18.359 74.809 18.2341C74.9743 18.1074 75.0992 17.932 75.1836 17.708C75.27 17.4839 75.3131 17.2231 75.3131 16.9256C75.3131 16.6317 75.2709 16.3746 75.1864 16.1542C75.1019 15.9338 74.9779 15.7621 74.8145 15.6391C74.651 15.516 74.449 15.4545 74.2084 15.4545C73.9605 15.4545 73.7539 15.5188 73.5886 15.6473C73.4233 15.7759 73.2984 15.9513 73.2139 16.1735C73.1313 16.3957 73.0899 16.6464 73.0899 16.9256C73.0899 17.2084 73.1322 17.4628 73.2167 17.6887C73.3011 17.9146 73.426 18.0936 73.5913 18.2259C73.7585 18.3563 73.9641 18.4215 74.2084 18.4215Z" fill="white"/>
<path d="M79.9027 19.0413V13.3994H80.7264V15.4958H80.776C80.8238 15.4077 80.8926 15.3057 80.9826 15.19C81.0726 15.0743 81.1975 14.9733 81.3573 14.887C81.5171 14.7988 81.7283 14.7547 81.9909 14.7547C82.3325 14.7547 82.6374 14.8411 82.9055 15.0137C83.1737 15.1863 83.384 15.4352 83.5364 15.7603C83.6907 16.0853 83.7678 16.4765 83.7678 16.9338C83.7678 17.3912 83.6916 17.7833 83.5391 18.1102C83.3867 18.4353 83.1773 18.6859 82.911 18.8623C82.6447 19.0367 82.3408 19.124 81.9992 19.124C81.7421 19.124 81.5318 19.0808 81.3683 18.9945C81.2067 18.9082 81.08 18.8072 80.9881 18.6915C80.8963 18.5757 80.8256 18.4729 80.776 18.3829H80.7071V19.0413H79.9027ZM80.7099 16.9256C80.7099 17.2231 80.7531 17.4839 80.8394 17.708C80.9257 17.932 81.0506 18.1074 81.214 18.2341C81.3775 18.359 81.5777 18.4215 81.8146 18.4215C82.0607 18.4215 82.2664 18.3563 82.4317 18.2259C82.597 18.0936 82.7219 17.9146 82.8064 17.6887C82.8927 17.4628 82.9358 17.2084 82.9358 16.9256C82.9358 16.6464 82.8936 16.3957 82.8091 16.1735C82.7265 15.9513 82.6016 15.7759 82.4344 15.6473C82.2692 15.5188 82.0625 15.4545 81.8146 15.4545C81.5758 15.4545 81.3738 15.516 81.2085 15.6391C81.0451 15.7621 80.9211 15.9338 80.8366 16.1542C80.7521 16.3746 80.7099 16.6317 80.7099 16.9256Z" fill="white"/>
<path d="M85.3119 20.6281C85.1889 20.6281 85.0768 20.618 84.9758 20.5978C84.8748 20.5795 84.7995 20.5593 84.7499 20.5372L84.9483 19.8623C85.0989 19.9027 85.2329 19.9201 85.3505 19.9146C85.468 19.9091 85.5718 19.865 85.6618 19.7824C85.7536 19.6997 85.8344 19.5647 85.9042 19.3774L86.0061 19.0964L84.4579 14.8098H85.3395L86.4111 18.0936H86.4552L87.5268 14.8098H88.4111L86.6673 19.6061C86.5865 19.8265 86.4836 20.0129 86.3588 20.1653C86.2339 20.3196 86.0851 20.4353 85.9125 20.5124C85.7398 20.5896 85.5396 20.6281 85.3119 20.6281Z" fill="white"/>
<path d="M45.3547 26.3735C45.5462 26.3735 45.5957 26.4228 45.6513 26.4969L48.141 29.8175H48.2275L50.6307 26.5154C50.6986 26.429 50.8037 26.3796 50.9396 26.3796H52.447C52.6015 26.3796 52.6571 26.5154 52.5829 26.6018L49.2098 30.8359L52.966 35.5513C53.0524 35.6748 53.003 35.792 52.8424 35.792H51.3226C51.1867 35.792 51.0631 35.7427 50.9767 35.6192L48.1719 31.8543H48.0854L45.4103 35.6069C45.3053 35.7303 45.1879 35.7982 45.0458 35.7982H43.5384C43.4149 35.7982 43.3469 35.6933 43.4334 35.576L47.134 30.8729L43.7979 26.6389C43.7299 26.5154 43.7608 26.3796 43.9214 26.3796H45.3547V26.3735Z" fill="white"/>
<path d="M60.2686 26.3735C62.3259 26.3735 63.8148 27.8609 63.8148 29.7434C63.8148 31.6815 62.3259 33.1319 60.2686 33.1319H57.2785V35.5513C57.2785 35.7056 57.2105 35.792 57.0684 35.792H55.9441C55.7896 35.792 55.7031 35.7056 55.7031 35.5513V26.6204C55.7031 26.4661 55.7896 26.3796 55.9441 26.3796H60.2686V26.3735ZM60.2686 31.6629C61.5289 31.6629 62.2394 30.8482 62.2394 29.7434C62.2394 28.6571 61.5289 27.8424 60.2686 27.8424H57.2785V31.6629H60.2686V31.6629Z" fill="white"/>
<path d="M67.119 33.6323C67.743 33.6323 68.2804 34.1507 68.2804 34.7741C68.2804 35.3975 67.743 35.9345 67.119 35.9345C66.495 35.9345 65.9761 35.3975 65.9761 34.7741C65.9761 34.1507 66.495 33.6323 67.119 33.6323Z" fill="white"/>
<path d="M78.7101 35.7927C78.5866 35.7927 78.4877 35.7433 78.4136 35.6384L75.3184 31.7315L73.0202 28.5714L72.9337 28.5899L73.0388 31.392V35.5581C73.0388 35.7124 72.9523 35.7989 72.7793 35.7989H71.692C71.5561 35.7989 71.4819 35.7124 71.4819 35.5581V26.621C71.4819 26.4667 71.5499 26.3803 71.7043 26.3803H72.7237C72.8967 26.3803 73.0326 26.4297 73.1191 26.5531L76.4428 30.7007L78.5186 33.5707L78.6051 33.5522L78.4815 30.7686V26.621C78.4815 26.4667 78.568 26.3803 78.7225 26.3803H79.8098C79.9642 26.3803 80.0322 26.4667 80.0322 26.621V35.5581C80.0322 35.7124 79.9642 35.7989 79.8098 35.7989H78.7101V35.7927Z" fill="white"/>
<path d="M90.5411 26.3735C90.6646 26.3735 90.782 26.4784 90.782 26.6142V27.6017C90.782 27.7252 90.6585 27.8239 90.5411 27.8239H85.0736V30.157H90.053C90.2075 30.157 90.294 30.2434 90.294 30.3977V31.3852C90.294 31.5395 90.2075 31.6074 90.053 31.6074H85.0736V34.3231H90.7141C90.8685 34.3231 90.9365 34.391 90.9365 34.5329V35.5513C90.9365 35.7056 90.8685 35.792 90.7141 35.792H83.7268C83.5724 35.792 83.5044 35.7056 83.5044 35.5513V26.6204C83.5044 26.4661 83.5724 26.3796 83.7268 26.3796H90.5411V26.3735Z" fill="white"/>
<path d="M101.748 26.3735C101.902 26.3735 101.989 26.4599 101.989 26.6142V27.6017C101.989 27.756 101.902 27.8424 101.748 27.8424H98.5474V35.5513C98.5474 35.6748 98.4609 35.792 98.3065 35.792H97.2192C97.0647 35.792 96.9782 35.7056 96.9782 35.5513V27.8424H93.778C93.6236 27.8424 93.5371 27.756 93.5371 27.6017V26.6142C93.5371 26.4599 93.6236 26.3735 93.778 26.3735H101.748Z" fill="white"/>
<path d="M105.781 26.3735C105.935 26.3735 106.022 26.4228 106.059 26.5463L108.24 33.9589H108.326L110.42 26.5463C110.458 26.4228 110.544 26.3735 110.661 26.3735H111.823C111.946 26.3735 112.033 26.4228 112.064 26.5463L114.208 33.9589H114.294L116.456 26.5648C116.493 26.4414 116.58 26.3735 116.697 26.3735H117.976C118.131 26.3735 118.186 26.4414 118.131 26.5957L115.19 35.5822C115.14 35.718 115.035 35.792 114.893 35.792H113.46C113.324 35.792 113.238 35.7242 113.182 35.5699L111.279 28.9534H111.193L109.308 35.5884C109.271 35.7242 109.185 35.7982 109.067 35.7982H107.616C107.461 35.7982 107.356 35.7303 107.307 35.5884L104.348 26.5648C104.298 26.4414 104.348 26.3735 104.502 26.3735H105.781Z" fill="white"/>
<path d="M125.348 26.2381C128.079 26.2381 130.21 28.2749 130.21 31.0955C130.21 33.8977 128.085 35.9345 125.348 35.9345C122.617 35.9345 120.486 33.8977 120.486 31.0955C120.486 28.2749 122.611 26.2381 125.348 26.2381ZM122.074 31.0955C122.074 33.0336 123.408 34.4655 125.342 34.4655C127.282 34.4655 128.61 33.0336 128.61 31.0955C128.61 29.1452 127.275 27.7071 125.342 27.7071C123.408 27.7071 122.074 29.139 122.074 31.0955Z" fill="white"/>
<path d="M137.889 26.3735C139.946 26.3735 141.453 27.8609 141.453 29.7434C141.453 31.0581 140.743 32.1629 139.655 32.7184L141.231 35.5205C141.317 35.6748 141.231 35.7982 141.039 35.7982H139.779C139.625 35.7982 139.501 35.6748 139.433 35.5575L138.173 33.1195C138.123 33.1381 138.037 33.1381 137.932 33.1381H134.905V35.5575C134.905 35.7118 134.837 35.7982 134.682 35.7982H133.595C133.403 35.7982 133.335 35.6748 133.335 35.5575V26.6204C133.335 26.4661 133.422 26.3796 133.576 26.3796H137.889V26.3735ZM137.889 31.6629C139.149 31.6629 139.878 30.8482 139.878 29.7434C139.878 28.6571 139.149 27.8424 137.889 27.8424H134.898V31.6629H137.889V31.6629Z" fill="white"/>
<path d="M146.067 26.3735C146.221 26.3735 146.308 26.4599 146.308 26.6142V30.7618L150.768 26.5648C150.892 26.4414 151.065 26.3735 151.269 26.3735H152.826C152.98 26.3735 153.048 26.5278 152.931 26.6512L148.779 30.4347L153.153 35.4958C153.277 35.6192 153.202 35.792 153.017 35.792H151.633C151.423 35.792 151.25 35.7242 151.114 35.5699L147.636 31.4593L146.302 32.5332V35.5575C146.302 35.7118 146.215 35.7982 146.061 35.7982H144.973C144.819 35.7982 144.732 35.7118 144.732 35.5575V26.6204C144.732 26.4661 144.819 26.3796 144.973 26.3796H146.067V26.3735Z" fill="white"/>
<rect x="0.5" y="0.5" width="176" height="47.1217" rx="4.34857" stroke="#444448"/>
</svg>
