<svg width="24" height="24" viewBox="0 0 24 24" fill="none" xmlns="http://www.w3.org/2000/svg">
<path d="M19.7668 19.5341V19.5335H19.7706V13.6831C19.7706 10.8211 19.1906 8.61639 16.041 8.61639C14.5269 8.61639 13.5108 9.49906 13.096 10.3359H13.0522V8.88359H10.0659V19.5335H13.1755V14.26C13.1755 12.8716 13.4232 11.5289 15.0418 11.5289C16.6366 11.5289 16.6604 13.1135 16.6604 14.3491V19.5341H19.7668Z" fill="white"/>
<path d="M4 9.23676H7.51023V19.7674H4V9.23676Z" fill="white"/>
<path d="M5.81962 3.76758C4.8151 3.76758 4 4.57888 4 5.57871C4 6.57855 4.8151 7.40682 5.81962 7.40682C6.82414 7.40682 7.63924 6.57855 7.63924 5.57871C7.63861 4.57888 6.82351 3.76758 5.81962 3.76758V3.76758Z" fill="white"/>
</svg>
