<svg width="24" height="24" viewBox="0 0 24 24" fill="none" xmlns="http://www.w3.org/2000/svg">
<path fill-rule="evenodd" clip-rule="evenodd" d="M20.3145 17.5561C21.4133 15.9117 21.9999 13.9783 22 12.0006C22.0001 10.6873 21.7415 9.38679 21.2389 8.17343C20.7364 6.96007 19.9997 5.85759 19.0711 4.92893C18.1424 4.00028 17.0399 3.26365 15.8266 2.7611C14.6132 2.25855 13.3127 1.99993 11.9994 2C10.0217 2.00011 8.08835 2.58668 6.44395 3.68554C4.79954 4.7844 3.51791 6.34619 2.7611 8.17343C2.00429 10.0007 1.80631 12.0113 2.19218 13.9511C2.57805 15.8908 3.53045 17.6726 4.92894 19.0711C6.32743 20.4696 8.1092 21.422 10.049 21.8078C11.9887 22.1937 13.9993 21.9957 15.8266 21.2389C17.6538 20.4821 19.2156 19.2005 20.3145 17.5561ZM18.4179 11.1988C18.5758 11.4371 18.6602 11.7166 18.6605 12.0025C18.6603 12.2846 18.5782 12.5606 18.4243 12.797C18.2703 13.0335 18.051 13.2202 17.793 13.3345C17.8155 13.4795 17.8269 13.6261 17.8271 13.7728C17.8271 16.0162 15.2151 17.8356 11.9936 17.8356C8.77217 17.8356 6.16019 16.0162 6.16019 13.7728C6.16056 13.6251 6.17231 13.4776 6.19534 13.3317C6.00113 13.245 5.82823 13.1168 5.6888 12.9562C5.54937 12.7956 5.44677 12.6064 5.38821 12.402C5.32965 12.1975 5.31655 11.9827 5.34982 11.7726C5.3831 11.5625 5.46194 11.3623 5.58082 11.1859C5.6997 11.0096 5.85574 10.8613 6.03798 10.7517C6.22022 10.642 6.42426 10.5736 6.63576 10.5511C6.84727 10.5287 7.06112 10.5528 7.26231 10.6218C7.46351 10.6908 7.64717 10.803 7.8004 10.9505C8.80959 10.2253 10.2054 9.75816 11.7578 9.71507L12.4994 6.22772C12.5065 6.1942 12.5202 6.16243 12.5397 6.13422C12.5591 6.10601 12.584 6.08191 12.6127 6.0633C12.6413 6.04452 12.6733 6.03163 12.7069 6.0254C12.7405 6.01917 12.775 6.01972 12.8083 6.02701L15.2321 6.54181C15.3445 6.31411 15.536 6.13521 15.7709 6.03865C16.0057 5.94209 16.2677 5.93451 16.5078 6.01731C16.7478 6.10012 16.9494 6.26763 17.0748 6.48845C17.2001 6.70927 17.2407 6.96824 17.1887 7.21679C17.1368 7.46535 16.996 7.68644 16.7927 7.83861C16.5895 7.99078 16.3377 8.06359 16.0845 8.04338C15.8314 8.02317 15.5944 7.91134 15.4178 7.72884C15.2413 7.54634 15.1373 7.30572 15.1255 7.05207L12.9552 6.59057L12.2907 9.71847C13.8204 9.77177 15.1935 10.2367 16.1908 10.9561C16.3964 10.7574 16.656 10.6236 16.9372 10.5713C17.2183 10.5191 17.5086 10.5507 17.7719 10.6623C18.0352 10.7739 18.2599 10.9605 18.4179 11.1988ZM18.6605 12.0025C18.6605 12.0026 18.6605 12.0027 18.6605 12.0027V12.0022C18.6605 12.0023 18.6605 12.0024 18.6605 12.0025ZM8.83766 12.4657C8.72325 12.6369 8.66218 12.8383 8.66218 13.0442C8.66263 13.3204 8.77258 13.5852 8.96792 13.7804C9.16327 13.9756 9.42806 14.0855 9.70425 14.0858C9.91021 14.0856 10.1115 14.0245 10.2827 13.91C10.4539 13.7954 10.5873 13.6327 10.6661 13.4424C10.7448 13.2521 10.7654 13.0427 10.7251 12.8407C10.6848 12.6387 10.5856 12.4532 10.4399 12.3076C10.2943 12.162 10.1087 12.0629 9.90666 12.0227C9.70464 11.9826 9.49526 12.0032 9.30498 12.0821C9.11471 12.1609 8.95208 12.2944 8.83766 12.4657ZM11.997 16.5617C12.3973 16.5617 13.7597 16.5067 14.4707 15.7968C14.4967 15.772 14.5175 15.7423 14.5318 15.7093C14.5462 15.6764 14.5538 15.6409 14.5542 15.6049C14.5547 15.569 14.548 15.5333 14.5344 15.5C14.5209 15.4667 14.5009 15.4365 14.4755 15.411C14.4501 15.3855 14.4199 15.3654 14.3867 15.3518C14.3534 15.3382 14.3177 15.3313 14.2818 15.3317C14.2459 15.332 14.2104 15.3396 14.1774 15.3538C14.1444 15.3681 14.1146 15.3888 14.0897 15.4147C13.6412 15.8632 12.6819 16.0219 11.997 16.0219C11.3121 16.0219 10.3534 15.8632 9.90552 15.4147C9.88046 15.3896 9.85071 15.3697 9.81796 15.3561C9.78522 15.3425 9.75011 15.3355 9.71465 15.3355C9.6792 15.3354 9.64408 15.3424 9.61131 15.356C9.57854 15.3695 9.54876 15.3894 9.52367 15.4144C9.49858 15.4395 9.47867 15.4692 9.46508 15.502C9.45148 15.5347 9.44447 15.5698 9.44445 15.6053C9.44442 15.6407 9.45138 15.6759 9.46492 15.7086C9.47847 15.7414 9.49833 15.7712 9.52339 15.7963C10.2338 16.505 11.5968 16.5617 11.997 16.5617ZM13.7089 13.9102C13.8802 14.0247 14.0815 14.0858 14.2875 14.0858C14.5637 14.0855 14.8284 13.9756 15.0237 13.7804C15.2189 13.5851 15.3287 13.3204 15.329 13.0442C15.329 12.8383 15.268 12.6369 15.1535 12.4656C15.0391 12.2943 14.8764 12.1609 14.6861 12.082C14.4958 12.0032 14.2864 11.9826 14.0843 12.0228C13.8823 12.0629 13.6967 12.1621 13.5511 12.3078C13.4054 12.4535 13.3062 12.639 13.266 12.8411C13.2259 13.0431 13.2465 13.2525 13.3253 13.4428C13.4041 13.6331 13.5376 13.7958 13.7089 13.9102Z" fill="white"/>
</svg>
