<svg width="24" height="24" viewBox="0 0 24 24" fill="none" xmlns="http://www.w3.org/2000/svg">
<path d="M20.9126 6.73137C20.2432 7.025 19.53 7.21962 18.7863 7.31412C19.5513 6.85737 20.1352 6.13962 20.4097 5.2745C19.6965 5.69975 18.909 6.00013 18.0697 6.16775C17.3925 5.44663 16.4272 5 15.3742 5C13.3312 5 11.6865 6.65825 11.6865 8.69112C11.6865 8.98362 11.7112 9.26487 11.772 9.53262C8.7041 9.383 5.98947 7.91262 4.16585 5.67275C3.84747 6.22512 3.66072 6.85737 3.66072 7.538C3.66072 8.816 4.31885 9.94887 5.29985 10.6047C4.70697 10.5935 4.12535 10.4214 3.6326 10.1502C3.6326 10.1615 3.6326 10.1761 3.6326 10.1907C3.6326 11.984 4.91172 13.4735 6.5891 13.8166C6.28872 13.8987 5.96135 13.9381 5.6216 13.9381C5.38535 13.9381 5.14685 13.9246 4.92297 13.8751C5.4011 15.3365 6.75785 16.4109 8.3711 16.4457C7.1156 17.4279 5.52147 18.0196 3.79572 18.0196C3.4931 18.0196 3.20285 18.0061 2.9126 17.969C4.54722 19.0231 6.48447 19.625 8.5736 19.625C15.3641 19.625 19.0766 14 19.0766 9.12425C19.0766 8.96112 19.071 8.80362 19.0631 8.64725C19.7955 8.1275 20.4108 7.47837 20.9126 6.73137Z" fill="white"/>
</svg>
