<svg width="20" height="21" viewBox="0 0 20 21" fill="none" xmlns="http://www.w3.org/2000/svg">
<path d="M11.9107 3.12923C10.6518 2.38178 9.0852 2.38177 7.82634 3.12921L4.45786 5.12922C3.24406 5.84991 2.5 7.15702 2.5 8.56865V12.7647C2.5 14.1763 3.24406 15.4834 4.45785 16.2041L7.82633 18.2042C9.08519 18.9516 10.6518 18.9516 11.9107 18.2041L15.279 16.2041C16.4928 15.4834 17.2368 14.1763 17.2368 12.7647V8.56862C17.2368 7.157 16.4928 5.84991 15.279 5.12921L11.9107 3.12923ZM3.49712 9.23191C3.49712 8.45676 4.3409 7.97634 5.0075 8.37196L7.90106 10.0893C8.81169 10.6297 9.36994 11.6102 9.36994 12.6691V16.1799C9.36994 16.9551 8.526 17.4355 7.85941 17.0397L4.96551 15.3215C4.05517 14.781 3.49712 13.8006 3.49712 12.7419V9.23191ZM11.8776 17.0397C11.211 17.4355 10.3671 16.9551 10.3671 16.1798V12.6691C10.3671 11.6102 10.9253 10.6297 11.8359 10.0893L14.7293 8.37201C15.3959 7.97639 16.2397 8.4568 16.2397 9.23196V12.742C16.2397 13.8007 15.6817 14.781 14.7713 15.3215L11.8776 17.0397Z" fill="#E22440"/>
</svg>
