<svg width="16" height="16" viewBox="0 0 16 16" fill="none" xmlns="http://www.w3.org/2000/svg">
<path d="M13.4545 0H4.31818C4.24318 0 4.18182 0.0602679 4.18182 0.133929V1.07143C4.18182 1.14509 4.24318 1.20536 4.31818 1.20536H12.7727V12.7232C12.7727 12.7969 12.8341 12.8571 12.9091 12.8571H13.8636C13.9386 12.8571 14 12.7969 14 12.7232V0.535714C14 0.239397 13.7563 0 13.4545 0ZM11.2727 2.14286H2.54545C2.24375 2.14286 2 2.38225 2 2.67857V11.5631C2 11.7054 2.05795 11.841 2.16023 11.9414L5.1142 14.8426C5.1517 14.8795 5.19432 14.9096 5.24034 14.9347V14.9665H5.31193C5.37159 14.9883 5.43466 15 5.49943 15H11.2727C11.5744 15 11.8182 14.7606 11.8182 14.4643V2.67857C11.8182 2.38225 11.5744 2.14286 11.2727 2.14286ZM5.23864 13.2623L3.77102 11.8192H5.23864V13.2623ZM10.5909 13.7946H6.32955V11.4174C6.32955 11.0474 6.02443 10.7478 5.64773 10.7478H3.22727V3.34821H10.5909V13.7946Z" fill="black"/>
</svg>
