<svg width="24" height="24" viewBox="0 0 24 24" fill="none" xmlns="http://www.w3.org/2000/svg">
<path d="M6.78947 21H3.94737C3.69611 21 3.45514 20.9002 3.27748 20.7225C3.09981 20.5449 3 20.3039 3 20.0526V12.4737C3 12.2224 3.09981 11.9815 3.27748 11.8038C3.45514 11.6261 3.69611 11.5263 3.94737 11.5263H6.78947C7.04073 11.5263 7.2817 11.6261 7.45936 11.8038C7.63703 11.9815 7.73684 12.2224 7.73684 12.4737V20.0526C7.73684 20.3039 7.63703 20.5449 7.45936 20.7225C7.2817 20.9002 7.04073 21 6.78947 21ZM13.4211 21H10.5789C10.3277 21 10.0867 20.9002 9.90906 20.7225C9.73139 20.5449 9.63158 20.3039 9.63158 20.0526V3.94737C9.63158 3.69611 9.73139 3.45514 9.90906 3.27748C10.0867 3.09981 10.3277 3 10.5789 3H13.4211C13.6723 3 13.9133 3.09981 14.0909 3.27748C14.2686 3.45514 14.3684 3.69611 14.3684 3.94737V20.0526C14.3684 20.3039 14.2686 20.5449 14.0909 20.7225C13.9133 20.9002 13.6723 21 13.4211 21ZM20.0526 21H17.2105C16.9593 21 16.7183 20.9002 16.5406 20.7225C16.363 20.5449 16.2632 20.3039 16.2632 20.0526V9.63158C16.2632 9.38032 16.363 9.13935 16.5406 8.96169C16.7183 8.78402 16.9593 8.68421 17.2105 8.68421H20.0526C20.3039 8.68421 20.5449 8.78402 20.7225 8.96169C20.9002 9.13935 21 9.38032 21 9.63158V20.0526C21 20.3039 20.9002 20.5449 20.7225 20.7225C20.5449 20.9002 20.3039 21 20.0526 21Z" fill="white"/>
</svg>
