<svg width="20" height="21" viewBox="0 0 20 21" fill="none" xmlns="http://www.w3.org/2000/svg">
<path fill-rule="evenodd" clip-rule="evenodd" d="M11.7999 1.54202C12.0029 1.6047 12.1803 1.72933 12.3062 1.89779C12.4321 2.06624 12.4999 2.26974 12.4999 2.47867V7.38777H16.4999C16.6829 7.38768 16.8623 7.43686 17.0188 7.52996C17.1752 7.62304 17.3026 7.75648 17.3871 7.91573C17.4717 8.07498 17.5102 8.25396 17.4983 8.43317C17.4864 8.61239 17.4248 8.78498 17.3199 8.93217L10.32 18.7503C10.1981 18.9217 10.0238 19.0505 9.8223 19.1178C9.62081 19.1851 9.40268 19.1877 9.19966 19.1249C8.99662 19.0622 8.81929 18.9374 8.69345 18.7688C8.56761 18.6003 8.49982 18.3967 8.49996 18.1878V13.2787H4.49996C4.31704 13.2788 4.13761 13.2296 3.98117 13.1365C3.82475 13.0434 3.69732 12.9099 3.61277 12.7507C3.52821 12.5915 3.48976 12.4125 3.50161 12.2333C3.51346 12.054 3.57514 11.8815 3.67996 11.7343L10.68 1.91609C10.802 1.74505 10.9763 1.61665 11.1778 1.54955C11.3792 1.48246 11.5971 1.48016 11.7999 1.543V1.54202Z" fill="#E22440"/>
</svg>
