<svg width="20" height="20" viewBox="0 0 20 20" fill="none" xmlns="http://www.w3.org/2000/svg">
<path d="M9.71631 10.4562C11.8592 10.4562 13.6109 8.70446 13.6109 6.56159C13.6109 4.41872 11.8592 2.66702 9.71631 2.66702C7.57344 2.66702 5.82178 4.41872 5.82178 6.56159C5.82178 8.70446 7.57347 10.4562 9.71631 10.4562Z" fill="#E22440"/>
<path d="M16.4001 13.5683C16.298 13.3132 16.162 13.0751 16.0089 12.854C15.2266 11.6975 14.0192 10.9322 12.6586 10.7451C12.4886 10.7282 12.3015 10.7621 12.1654 10.8642C11.4511 11.3914 10.6008 11.6635 9.71642 11.6635C8.83204 11.6635 7.98172 11.3914 7.26743 10.8642C7.13136 10.7621 6.94428 10.7111 6.77423 10.7451C5.41368 10.9322 4.1892 11.6975 3.4239 12.854C3.27084 13.0751 3.13477 13.3302 3.03276 13.5683C2.98175 13.6703 2.99874 13.7894 3.04975 13.8914C3.18582 14.1295 3.35587 14.3676 3.50893 14.5717C3.74701 14.8949 4.00213 15.184 4.29125 15.4561C4.52934 15.6941 4.80144 15.9152 5.07358 16.1363C6.4171 17.1398 8.03276 17.6669 9.69943 17.6669C11.3661 17.6669 12.9818 17.1397 14.3253 16.1363C14.5974 15.9323 14.8695 15.6941 15.1076 15.4561C15.3797 15.184 15.6518 14.8948 15.8899 14.5717C16.06 14.3506 16.2131 14.1295 16.3491 13.8914C16.4341 13.7894 16.4511 13.6703 16.4001 13.5683Z" fill="#E22440"/>
</svg>
