<svg width="28" height="27" viewBox="0 0 28 27" fill="none" xmlns="http://www.w3.org/2000/svg">
<path d="M18.3884 26.3589L15.4712 23.4416C14.6427 22.6132 13.3031 22.6132 12.4834 23.4416L9.56619 26.3589C8.71129 27.2138 7.31876 27.2138 6.46386 26.3589L5.05371 24.9487L9.52212 20.4804C11.9811 18.0214 15.9647 18.0214 18.4237 20.4804L22.8921 24.9487L21.482 26.3589C20.6359 27.2138 19.2522 27.2138 18.3884 26.3589Z" fill="white"/>
<path d="M2.55084 22.4363L1.14069 21.0262C0.285786 20.1713 0.285786 18.7788 1.14069 17.9239L4.05794 15.0067C4.8864 14.1782 4.8864 12.8386 4.05794 12.0189L1.14069 9.10173C0.285786 8.24683 0.285786 6.85432 1.14069 5.99943L2.55084 4.58929L7.01925 9.05766C9.4782 11.5166 9.4782 15.5002 7.01925 17.9591L2.55084 22.4363Z" fill="white"/>
<path d="M14.0169 8.3616C12.404 8.3616 10.7911 7.75347 9.56607 6.51961L5.09766 2.05124L6.50781 0.64111C7.36271 -0.213785 8.75523 -0.213785 9.61013 0.64111L12.5274 3.55832C13.347 4.37797 14.6955 4.37797 15.5151 3.55832L18.4324 0.64111C19.2873 -0.213785 20.6798 -0.213785 21.5347 0.64111L22.9449 2.05124L18.4765 6.51961C17.2426 7.73585 15.6297 8.3616 14.0169 8.3616Z" fill="white"/>
<path d="M25.4489 22.4019L20.9804 17.9335C18.5215 15.4746 18.5215 11.4909 20.9804 9.03202L25.4489 4.56366L26.859 5.97379C27.7139 6.82869 27.7139 8.2212 26.859 9.07609L23.9418 11.9933C23.1133 12.8218 23.1133 14.1614 23.9418 14.981L26.859 17.8982C27.7139 18.7531 27.7139 20.1456 26.859 21.0005L25.4489 22.4019Z" fill="white"/>
</svg>
