<svg width="16" height="16" viewBox="0 0 16 16" fill="none" xmlns="http://www.w3.org/2000/svg">
<path d="M11.3013 5.36501C10.4823 4.54601 9.41125 4.13301 8.33325 4.13301V8.33301L5.36525 11.301C7.00325 12.939 9.66325 12.939 11.3083 11.301C12.9463 9.66301 12.9463 7.00301 11.3013 5.36501ZM8.33325 1.33301C4.46925 1.33301 1.33325 4.46901 1.33325 8.33301C1.33325 12.197 4.46925 15.333 8.33325 15.333C12.1973 15.333 15.3333 12.197 15.3333 8.33301C15.3333 4.46901 12.1973 1.33301 8.33325 1.33301ZM8.33325 13.933C5.23925 13.933 2.73325 11.427 2.73325 8.33301C2.73325 5.23901 5.23925 2.73301 8.33325 2.73301C11.4273 2.73301 13.9333 5.23901 13.9333 8.33301C13.9333 11.427 11.4273 13.933 8.33325 13.933Z" fill="#C058FF"/>
</svg>
